<svg width="135" height="40" viewBox="0 0 135 40" fill="none" xmlns="http://www.w3.org/2000/svg">
<rect x="0.5" y="0.5" width="134" height="39" rx="6.5" stroke="#FDFDFE"/>
<path d="M81.5267 19.2004V21.4914H80.0906V22.9938H81.5267V28.0988C81.5267 29.842 82.3152 30.5392 84.2991 30.5392C84.6478 30.5392 84.9798 30.4977 85.2703 30.4479V28.9621C85.0213 28.987 84.8636 29.0036 84.5896 29.0036C83.7015 29.0036 83.3113 28.5886 83.3113 27.6423V22.9938H85.2703V21.4914H83.3113V19.2004H81.5267Z" fill="#FDFDFE"/>
<path d="M90.3242 30.6638C92.9638 30.6638 94.5825 28.8957 94.5825 25.9655C94.5825 23.0519 92.9555 21.2756 90.3242 21.2756C87.6845 21.2756 86.0576 23.0519 86.0576 25.9655C86.0576 28.8957 87.6762 30.6638 90.3242 30.6638ZM90.3242 29.0783C88.7719 29.0783 87.9003 27.9411 87.9003 25.9655C87.9003 24.0065 88.7719 22.861 90.3242 22.861C91.8681 22.861 92.748 24.0065 92.748 25.9655C92.748 27.9328 91.8681 29.0783 90.3242 29.0783Z" fill="#FDFDFE"/>
<path d="M95.9674 30.4894H97.752V25.152C97.752 23.882 98.7066 23.027 100.06 23.027C100.375 23.027 100.906 23.0851 101.056 23.1349V21.3752C100.865 21.3254 100.524 21.3005 100.259 21.3005C99.0802 21.3005 98.0758 21.9479 97.8184 22.8361H97.6856V21.4499H95.9674V30.4894Z" fill="#FDFDFE"/>
<path d="M105.487 22.7946C106.807 22.7946 107.67 23.716 107.712 25.1354H103.146C103.246 23.7243 104.167 22.7946 105.487 22.7946ZM107.703 28.049C107.371 28.7546 106.633 29.1447 105.553 29.1447C104.126 29.1447 103.204 28.1403 103.146 26.5549V26.4553H109.53V25.8327C109.53 22.9938 108.01 21.2756 105.495 21.2756C102.947 21.2756 101.328 23.11 101.328 25.9987C101.328 28.8874 102.914 30.6638 105.504 30.6638C107.571 30.6638 109.015 29.6677 109.422 28.049H107.703Z" fill="#FDFDFE"/>
<path d="M69.8231 27.1513C69.9607 29.371 71.8105 30.7906 74.5636 30.7906C77.506 30.7906 79.3472 29.3021 79.3472 26.9276C79.3472 25.0606 78.2975 24.0282 75.7509 23.4346L74.3829 23.099C72.7655 22.7205 72.1116 22.2129 72.1116 21.3267C72.1116 20.2082 73.1268 19.4769 74.6497 19.4769C76.095 19.4769 77.093 20.191 77.2737 21.3353H79.1493C79.0374 19.2446 77.1963 17.7734 74.6755 17.7734C71.9654 17.7734 70.1586 19.2446 70.1586 21.4557C70.1586 23.2797 71.1824 24.3637 73.4279 24.8885L75.0282 25.2757C76.6715 25.6629 77.3942 26.2307 77.3942 27.1771C77.3942 28.2783 76.2585 29.0785 74.7099 29.0785C73.0494 29.0785 71.8965 28.33 71.7331 27.1513H69.8231Z" fill="#FDFDFE"/>
<path d="M51.3357 21.3005C50.1072 21.3005 49.0447 21.9147 48.4969 22.944H48.3641V21.4499H46.6458V33.4943H48.4305V29.1198H48.5716C49.0447 30.0744 50.0657 30.6388 51.3523 30.6388C53.6351 30.6388 55.0877 28.8376 55.0877 25.9655C55.0877 23.0934 53.6351 21.3005 51.3357 21.3005ZM50.8294 29.0368C49.3353 29.0368 48.3973 27.8581 48.3973 25.9738C48.3973 24.0812 49.3353 22.9025 50.8377 22.9025C52.3484 22.9025 53.2532 24.0563 53.2532 25.9655C53.2532 27.883 52.3484 29.0368 50.8294 29.0368Z" fill="#FDFDFE"/>
<path d="M61.3325 21.3005C60.104 21.3005 59.0415 21.9147 58.4937 22.944H58.3609V21.4499H56.6426V33.4943H58.4273V29.1198H58.5684C59.0415 30.0744 60.0625 30.6388 61.3491 30.6388C63.6319 30.6388 65.0845 28.8376 65.0845 25.9655C65.0845 23.0934 63.6319 21.3005 61.3325 21.3005ZM60.8262 29.0368C59.3321 29.0368 58.3941 27.8581 58.3941 25.9738C58.3941 24.0812 59.3321 22.9025 60.8345 22.9025C62.3452 22.9025 63.25 24.0563 63.25 25.9655C63.25 27.883 62.3452 29.0368 60.8262 29.0368Z" fill="#FDFDFE"/>
<path d="M43.4438 30.4894H45.4914L41.009 18.0746H38.9356L34.4531 30.4894H36.4319L37.5762 27.1943H42.3081L43.4438 30.4894ZM39.8733 20.3287H40.0196L41.8177 25.5768H38.0666L39.8733 20.3287Z" fill="#FDFDFE"/>
<path d="M35.6484 8.70874V14.6978H37.8108C39.5955 14.6978 40.6289 13.5979 40.6289 11.6846C40.6289 9.80029 39.5872 8.70874 37.8108 8.70874H35.6484ZM36.5781 9.55542H37.707C38.948 9.55542 39.6826 10.344 39.6826 11.697C39.6826 13.0708 38.9604 13.8511 37.707 13.8511H36.5781V9.55542Z" fill="#FDFDFE"/>
<path d="M43.794 14.7849C45.1138 14.7849 45.9231 13.9009 45.9231 12.4358C45.9231 10.979 45.1097 10.0908 43.794 10.0908C42.4742 10.0908 41.6607 10.979 41.6607 12.4358C41.6607 13.9009 42.47 14.7849 43.794 14.7849ZM43.794 13.9922C43.0179 13.9922 42.5821 13.4236 42.5821 12.4358C42.5821 11.4563 43.0179 10.8835 43.794 10.8835C44.566 10.8835 45.0059 11.4563 45.0059 12.4358C45.0059 13.4194 44.566 13.9922 43.794 13.9922Z" fill="#FDFDFE"/>
<path d="M52.8153 10.178H51.9229L51.1178 13.627H51.0472L50.1175 10.178H49.2625L48.3329 13.627H48.2665L47.4571 10.178H46.5523L47.7975 14.6978H48.7147L49.6444 11.3691H49.7149L50.6488 14.6978H51.5743L52.8153 10.178Z" fill="#FDFDFE"/>
<path d="M53.8429 14.6978H54.7353V12.054C54.7353 11.3484 55.1544 10.9084 55.8144 10.9084C56.4743 10.9084 56.7897 11.2695 56.7897 11.9958V14.6978H57.682V11.7717C57.682 10.6968 57.1259 10.0908 56.1173 10.0908C55.4367 10.0908 54.9884 10.3938 54.7685 10.896H54.702V10.178H53.8429V14.6978Z" fill="#FDFDFE"/>
<path d="M59.0874 14.6978H59.9797V8.41406H59.0874V14.6978Z" fill="#FDFDFE"/>
<path d="M63.3357 14.7849C64.6555 14.7849 65.4648 13.9009 65.4648 12.4358C65.4648 10.979 64.6514 10.0908 63.3357 10.0908C62.0159 10.0908 61.2024 10.979 61.2024 12.4358C61.2024 13.9009 62.0117 14.7849 63.3357 14.7849ZM63.3357 13.9922C62.5596 13.9922 62.1238 13.4236 62.1238 12.4358C62.1238 11.4563 62.5596 10.8835 63.3357 10.8835C64.1077 10.8835 64.5476 11.4563 64.5476 12.4358C64.5476 13.4194 64.1077 13.9922 63.3357 13.9922Z" fill="#FDFDFE"/>
<path d="M68.1236 14.0212C67.638 14.0212 67.2852 13.7847 67.2852 13.3779C67.2852 12.9795 67.5674 12.7678 68.19 12.7263L69.294 12.6558V13.0334C69.294 13.5938 68.7959 14.0212 68.1236 14.0212ZM67.8953 14.7725C68.4888 14.7725 68.9827 14.5151 69.2525 14.0627H69.323V14.6978H70.1822V11.6099C70.1822 10.6553 69.543 10.0908 68.41 10.0908C67.3848 10.0908 66.6543 10.5889 66.563 11.365H67.4263C67.5259 11.0454 67.8704 10.8628 68.3685 10.8628C68.9786 10.8628 69.294 11.1326 69.294 11.6099V12L68.0696 12.0706C66.9947 12.137 66.3887 12.606 66.3887 13.4194C66.3887 14.2454 67.0237 14.7725 67.8953 14.7725Z" fill="#FDFDFE"/>
<path d="M73.2103 14.7725C73.8329 14.7725 74.36 14.4778 74.6297 13.9839H74.7003V14.6978H75.5553V8.41406H74.6629V10.896H74.5965C74.3517 10.3979 73.8287 10.1033 73.2103 10.1033C72.0689 10.1033 71.3343 11.0081 71.3343 12.4358C71.3343 13.8677 72.0606 14.7725 73.2103 14.7725ZM73.4635 10.9043C74.2105 10.9043 74.6795 11.4978 74.6795 12.4399C74.6795 13.3862 74.2147 13.9714 73.4635 13.9714C72.7081 13.9714 72.2557 13.3945 72.2557 12.4358C72.2557 11.4854 72.7123 10.9043 73.4635 10.9043Z" fill="#FDFDFE"/>
<path d="M81.3417 14.7849C82.6616 14.7849 83.4709 13.9009 83.4709 12.4358C83.4709 10.979 82.6574 10.0908 81.3417 10.0908C80.0219 10.0908 79.2084 10.979 79.2084 12.4358C79.2084 13.9009 80.0178 14.7849 81.3417 14.7849ZM81.3417 13.9922C80.5656 13.9922 80.1298 13.4236 80.1298 12.4358C80.1298 11.4563 80.5656 10.8835 81.3417 10.8835C82.1137 10.8835 82.5537 11.4563 82.5537 12.4358C82.5537 13.4194 82.1137 13.9922 81.3417 13.9922Z" fill="#FDFDFE"/>
<path d="M84.6521 14.6978H85.5444V12.054C85.5444 11.3484 85.9636 10.9084 86.6235 10.9084C87.2834 10.9084 87.5989 11.2695 87.5989 11.9958V14.6978H88.4912V11.7717C88.4912 10.6968 87.9351 10.0908 86.9265 10.0908C86.2458 10.0908 85.7976 10.3938 85.5776 10.896H85.5112V10.178H84.6521V14.6978Z" fill="#FDFDFE"/>
<path d="M92.6009 9.05322V10.1987H91.8829V10.95H92.6009V13.5024C92.6009 14.374 92.9952 14.7227 93.9872 14.7227C94.1615 14.7227 94.3275 14.7019 94.4728 14.677V13.9341C94.3482 13.9465 94.2694 13.9548 94.1324 13.9548C93.6883 13.9548 93.4933 13.7473 93.4933 13.2742V10.95H94.4728V10.1987H93.4933V9.05322H92.6009Z" fill="#FDFDFE"/>
<path d="M95.6706 14.6978H96.5629V12.0581C96.5629 11.3733 96.9696 10.9126 97.7001 10.9126C98.331 10.9126 98.6671 11.2778 98.6671 12V14.6978H99.5595V11.78C99.5595 10.7051 98.966 10.095 98.0031 10.095C97.3224 10.095 96.8451 10.3979 96.6251 10.9043H96.5546V8.41406H95.6706V14.6978Z" fill="#FDFDFE"/>
<path d="M102.779 10.8503C103.438 10.8503 103.87 11.311 103.891 12.0208H101.608C101.658 11.3152 102.119 10.8503 102.779 10.8503ZM103.887 13.4775C103.721 13.8303 103.351 14.0254 102.812 14.0254C102.098 14.0254 101.637 13.5232 101.608 12.7305V12.6807H104.8V12.3694C104.8 10.95 104.04 10.0908 102.783 10.0908C101.508 10.0908 100.699 11.0081 100.699 12.4524C100.699 13.8967 101.492 14.7849 102.787 14.7849C103.82 14.7849 104.542 14.2869 104.746 13.4775H103.887Z" fill="#FDFDFE"/>
<path d="M24.7661 20.2991C24.7877 18.6181 25.6905 17.0275 27.1226 16.147C26.2192 14.8567 24.7059 14.0386 23.1315 13.9894C21.4522 13.8131 19.8243 14.9942 18.9686 14.9942C18.0963 14.9942 16.7788 14.0069 15.3601 14.0361C13.5108 14.0958 11.7868 15.1472 10.8871 16.7639C8.95314 20.1123 10.3957 25.0334 12.2483 27.74C13.1752 29.0654 14.2585 30.5458 15.676 30.4933C17.063 30.4358 17.5811 29.6088 19.2554 29.6088C20.9141 29.6088 21.4002 30.4933 22.8464 30.4599C24.3348 30.4358 25.2725 29.1287 26.1669 27.7908C26.8329 26.8464 27.3453 25.8027 27.6853 24.6983C25.9362 23.9585 24.7681 22.1982 24.7661 20.2991Z" fill="#FDFDFE"/>
<path d="M22.0344 12.2094C22.8459 11.2352 23.2457 9.98298 23.1489 8.71875C21.9091 8.84897 20.7638 9.44153 19.9413 10.3784C19.1371 11.2937 18.7185 12.5238 18.7976 13.7397C20.0379 13.7525 21.2572 13.176 22.0344 12.2094Z" fill="#FDFDFE"/>
</svg>
