<svg width="135" height="40" viewBox="0 0 135 40" fill="none" xmlns="http://www.w3.org/2000/svg">
<rect x="0.5" y="0.5" width="134" height="39" rx="4.5" stroke="#FDFDFE"/>
<path d="M68.1331 21.7509C65.7811 21.7509 63.8641 23.5399 63.8641 26.0039C63.8641 28.4529 65.7811 30.2569 68.1331 30.2569C70.4861 30.2569 72.4031 28.4529 72.4031 26.0039C72.4021 23.5399 70.4851 21.7509 68.1331 21.7509ZM68.1331 28.5829C66.8441 28.5829 65.7331 27.5199 65.7331 26.0049C65.7331 24.4739 66.8451 23.4269 68.1331 23.4269C69.4221 23.4269 70.5331 24.4739 70.5331 26.0049C70.5331 27.5189 69.4221 28.5829 68.1331 28.5829ZM58.8191 21.7509C56.4671 21.7509 54.5501 23.5399 54.5501 26.0039C54.5501 28.4529 56.4671 30.2569 58.8191 30.2569C61.1721 30.2569 63.0891 28.4529 63.0891 26.0039C63.0891 23.5399 61.1721 21.7509 58.8191 21.7509ZM58.8191 28.5829C57.5301 28.5829 56.4191 27.5199 56.4191 26.0049C56.4191 24.4739 57.5311 23.4269 58.8191 23.4269C60.1081 23.4269 61.2191 24.4739 61.2191 26.0049C61.2201 27.5189 60.1081 28.5829 58.8191 28.5829ZM47.7411 23.0569V24.8609H52.0591C51.9301 25.8759 51.5921 26.6169 51.0761 27.1319C50.4481 27.7599 49.4651 28.4529 47.7411 28.4529C45.0831 28.4529 43.0051 26.3099 43.0051 23.6519C43.0051 20.9939 45.0831 18.8509 47.7411 18.8509C49.1751 18.8509 50.2221 19.4149 50.9951 20.1399L52.2681 18.8669C51.1881 17.8359 49.7551 17.0469 47.7411 17.0469C44.1001 17.0469 41.0391 20.0109 41.0391 23.6519C41.0391 27.2929 44.1001 30.2569 47.7411 30.2569C49.7061 30.2569 51.1891 29.6119 52.3481 28.4039C53.5401 27.2119 53.9111 25.5359 53.9111 24.1829C53.9111 23.7649 53.8791 23.3779 53.8141 23.0559H47.7411V23.0569ZM93.0491 24.4579C92.6951 23.5079 91.6151 21.7509 89.4081 21.7509C87.2171 21.7509 85.3961 23.4749 85.3961 26.0039C85.3961 28.3879 87.2011 30.2569 89.6171 30.2569C91.5661 30.2569 92.6941 29.0649 93.1621 28.3719L91.7121 27.4049C91.2291 28.1139 90.5681 28.5809 89.6171 28.5809C88.6671 28.5809 87.9901 28.1459 87.5551 27.2919L93.2421 24.9399L93.0491 24.4579ZM87.2491 25.8759C87.2011 24.2319 88.5221 23.3949 89.4731 23.3949C90.2141 23.3949 90.8421 23.7659 91.0521 24.2969L87.2491 25.8759ZM82.6261 29.9999H84.4941V17.4989H82.6261V29.9999ZM79.5641 22.7019H79.5001C79.0811 22.2019 78.2751 21.7509 77.2611 21.7509C75.1341 21.7509 73.1851 23.6199 73.1851 26.0209C73.1851 28.4049 75.1341 30.2579 77.2611 30.2579C78.2761 30.2579 79.0811 29.8069 79.5001 29.2919H79.5641V29.9039C79.5641 31.5309 78.6941 32.4009 77.2931 32.4009C76.1491 32.4009 75.4401 31.5799 75.1501 30.8869L73.5231 31.5639C73.9901 32.6909 75.2301 34.0769 77.2931 34.0769C79.4841 34.0769 81.3371 32.7879 81.3371 29.6459V22.0099H79.5651V22.7019H79.5641ZM77.4221 28.5829C76.1331 28.5829 75.0541 27.5029 75.0541 26.0209C75.0541 24.5219 76.1331 23.4269 77.4221 23.4269C78.6941 23.4269 79.6931 24.5219 79.6931 26.0209C79.6931 27.5029 78.6941 28.5829 77.4221 28.5829ZM101.803 17.4989H97.3321V29.9999H99.1971V25.2639H101.802C103.87 25.2639 105.904 23.7669 105.904 21.3819C105.904 18.9969 103.871 17.4989 101.803 17.4989ZM101.851 23.5239H99.1971V19.2389H101.851C103.246 19.2389 104.038 20.3939 104.038 21.3819C104.038 22.3499 103.246 23.5239 101.851 23.5239ZM113.383 21.7289C112.032 21.7289 110.633 22.3239 110.054 23.6429L111.71 24.3339C112.064 23.6429 112.724 23.4169 113.415 23.4169C114.38 23.4169 115.361 23.9959 115.377 25.0249V25.1539C115.039 24.9609 114.315 24.6719 113.431 24.6719C111.646 24.6719 109.828 25.6529 109.828 27.4859C109.828 29.1589 111.292 30.2359 112.932 30.2359C114.186 30.2359 114.878 29.6729 115.312 29.0129H115.376V29.9779H117.178V25.1849C117.179 22.9669 115.521 21.7289 113.383 21.7289ZM113.157 28.5799C112.547 28.5799 111.694 28.2739 111.694 27.5179C111.694 26.5529 112.756 26.1829 113.673 26.1829C114.492 26.1829 114.879 26.3599 115.377 26.6009C115.232 27.7599 114.235 28.5799 113.157 28.5799ZM123.74 22.0019L121.601 27.4219H121.537L119.317 22.0019H117.307L120.636 29.5769L118.738 33.7909H120.684L125.815 22.0019H123.74ZM106.934 29.9999H108.799V17.4989H106.934V29.9999Z" fill="#FDFDFE"/>
<path d="M47.4176 10.2451C47.4176 11.0831 47.1696 11.7501 46.6726 12.2481C46.1086 12.8401 45.3726 13.1361 44.4686 13.1361C43.6026 13.1361 42.8656 12.8361 42.2606 12.2361C41.6546 11.6351 41.3516 10.8911 41.3516 10.0031C41.3516 9.11414 41.6546 8.37014 42.2606 7.77014C42.8656 7.16914 43.6026 6.86914 44.4686 6.86914C44.8986 6.86914 45.3096 6.95314 45.6996 7.12014C46.0906 7.28814 46.4036 7.51114 46.6376 7.79014L46.1106 8.31814C45.7136 7.84314 45.1666 7.60614 44.4676 7.60614C43.8356 7.60614 43.2896 7.82814 42.8286 8.27214C42.3676 8.71614 42.1376 9.29314 42.1376 10.0021C42.1376 10.7111 42.3676 11.2881 42.8286 11.7321C43.2896 12.1761 43.8356 12.3981 44.4676 12.3981C45.1376 12.3981 45.6966 12.1751 46.1436 11.7281C46.4336 11.4371 46.6016 11.0321 46.6466 10.5131H44.4676V9.79214H47.3746C47.4046 9.94914 47.4176 10.1001 47.4176 10.2451Z" fill="#FDFDFE"/>
<path d="M52.0277 7.7392H49.2957V9.6412H51.7597V10.3622H49.2957V12.2642H52.0277V13.0022H48.5247V7.0022H52.0277V7.7392Z" fill="#FDFDFE"/>
<path d="M55.2785 13.0022H54.5075V7.7392H52.8315V7.0022H56.9545V7.7392H55.2785V13.0022Z" fill="#FDFDFE"/>
<path d="M59.9375 13.0022V7.0022H60.7085V13.0022H59.9375Z" fill="#FDFDFE"/>
<path d="M64.1277 13.0022H63.3567V7.7392H61.6807V7.0022H65.8037V7.7392H64.1277V13.0022Z" fill="#FDFDFE"/>
<path d="M73.6084 12.2272C73.0184 12.8332 72.2854 13.1362 71.4084 13.1362C70.5314 13.1362 69.7984 12.8332 69.2094 12.2272C68.6194 11.6212 68.3254 10.8792 68.3254 10.0022C68.3254 9.12519 68.6194 8.38319 69.2094 7.77719C69.7984 7.17119 70.5314 6.86719 71.4084 6.86719C72.2804 6.86719 73.0124 7.17219 73.6044 7.78119C74.1964 8.39019 74.4924 9.13019 74.4924 10.0022C74.4924 10.8792 74.1974 11.6212 73.6084 12.2272ZM69.7784 11.7242C70.2224 12.1742 70.7654 12.3982 71.4084 12.3982C72.0514 12.3982 72.5954 12.1732 73.0384 11.7242C73.4824 11.2742 73.7054 10.7002 73.7054 10.0022C73.7054 9.30419 73.4824 8.73019 73.0384 8.28019C72.5954 7.83019 72.0514 7.60619 71.4084 7.60619C70.7654 7.60619 70.2224 7.83119 69.7784 8.28019C69.3354 8.73019 69.1124 9.30419 69.1124 10.0022C69.1124 10.7002 69.3354 11.2742 69.7784 11.7242Z" fill="#FDFDFE"/>
<path d="M75.5745 13.0022V7.0022H76.5125L79.4285 11.6692H79.4615L79.4285 10.5132V7.0022H80.1995V13.0022H79.3945L76.3435 8.1082H76.3105L76.3435 9.2642V13.0022H75.5745Z" fill="#FDFDFE"/>
<path d="M47.4176 10.2451C47.4176 11.0831 47.1696 11.7501 46.6726 12.2481C46.1086 12.8401 45.3726 13.1361 44.4686 13.1361C43.6026 13.1361 42.8656 12.8361 42.2606 12.2361C41.6546 11.6351 41.3516 10.8911 41.3516 10.0031C41.3516 9.11414 41.6546 8.37014 42.2606 7.77014C42.8656 7.16914 43.6026 6.86914 44.4686 6.86914C44.8986 6.86914 45.3096 6.95314 45.6996 7.12014C46.0906 7.28814 46.4036 7.51114 46.6376 7.79014L46.1106 8.31814C45.7136 7.84314 45.1666 7.60614 44.4676 7.60614C43.8356 7.60614 43.2896 7.82814 42.8286 8.27214C42.3676 8.71614 42.1376 9.29314 42.1376 10.0021C42.1376 10.7111 42.3676 11.2881 42.8286 11.7321C43.2896 12.1761 43.8356 12.3981 44.4676 12.3981C45.1376 12.3981 45.6966 12.1751 46.1436 11.7281C46.4336 11.4371 46.6016 11.0321 46.6466 10.5131H44.4676V9.79214H47.3746C47.4046 9.94914 47.4176 10.1001 47.4176 10.2451Z" stroke="#FDFDFE" strokeWidth="0.2" stroke-miterlimit="10"/>
<path d="M52.0277 7.7392H49.2957V9.6412H51.7597V10.3622H49.2957V12.2642H52.0277V13.0022H48.5247V7.0022H52.0277V7.7392Z" stroke="#FDFDFE" strokeWidth="0.2" stroke-miterlimit="10"/>
<path d="M55.2785 13.0022H54.5075V7.7392H52.8315V7.0022H56.9545V7.7392H55.2785V13.0022Z" stroke="#FDFDFE" strokeWidth="0.2" stroke-miterlimit="10"/>
<path d="M59.9375 13.0022V7.0022H60.7085V13.0022H59.9375Z" stroke="#FDFDFE" strokeWidth="0.2" stroke-miterlimit="10"/>
<path d="M64.1277 13.0022H63.3567V7.7392H61.6807V7.0022H65.8037V7.7392H64.1277V13.0022Z" stroke="#FDFDFE" strokeWidth="0.2" stroke-miterlimit="10"/>
<path d="M73.6084 12.2272C73.0184 12.8332 72.2854 13.1362 71.4084 13.1362C70.5314 13.1362 69.7984 12.8332 69.2094 12.2272C68.6194 11.6212 68.3254 10.8792 68.3254 10.0022C68.3254 9.12519 68.6194 8.38319 69.2094 7.77719C69.7984 7.17119 70.5314 6.86719 71.4084 6.86719C72.2804 6.86719 73.0124 7.17219 73.6044 7.78119C74.1964 8.39019 74.4924 9.13019 74.4924 10.0022C74.4924 10.8792 74.1974 11.6212 73.6084 12.2272ZM69.7784 11.7242C70.2224 12.1742 70.7654 12.3982 71.4084 12.3982C72.0514 12.3982 72.5954 12.1732 73.0384 11.7242C73.4824 11.2742 73.7054 10.7002 73.7054 10.0022C73.7054 9.30419 73.4824 8.73019 73.0384 8.28019C72.5954 7.83019 72.0514 7.60619 71.4084 7.60619C70.7654 7.60619 70.2224 7.83119 69.7784 8.28019C69.3354 8.73019 69.1124 9.30419 69.1124 10.0022C69.1124 10.7002 69.3354 11.2742 69.7784 11.7242Z" stroke="#FDFDFE" strokeWidth="0.2" stroke-miterlimit="10"/>
<path d="M75.5745 13.0022V7.0022H76.5125L79.4285 11.6692H79.4615L79.4285 10.5132V7.0022H80.1995V13.0022H79.3945L76.3435 8.1082H76.3105L76.3435 9.2642V13.0022H75.5745Z" stroke="#FDFDFE" strokeWidth="0.2" stroke-miterlimit="10"/>
<path fillRule="evenodd" clipRule="evenodd" d="M10.1599 7.96617C10.0418 8.23367 9.97656 8.56144 9.97656 8.94269V31.0587C9.97656 31.4408 10.0419 31.7686 10.1601 32.036L22.1941 20.0003L10.1599 7.96617ZM10.8551 32.7552C11.3012 32.9461 11.8831 32.8855 12.5176 32.5257L26.6747 24.4809L22.9012 20.7074L10.8551 32.7552ZM27.5771 23.9691L32.0186 21.4457C33.4156 20.6507 33.4156 19.3517 32.0186 18.5577L27.5751 16.0328L23.6082 20.0003L27.5771 23.9691ZM26.6733 15.5204L12.5176 7.4767C11.883 7.11612 11.3011 7.05596 10.8551 7.2471L22.9011 19.2932L26.6733 15.5204Z" fill="#FDFDFE"/>
</svg>
