<svg width="20" height="20" viewBox="0 0 20 20" fill="none" xmlns="http://www.w3.org/2000/svg">
<path d="M13.3359 3.33464C14.1109 3.33464 14.4984 3.33464 14.8163 3.41982C15.679 3.65099 16.3529 4.32486 16.5841 5.18759C16.6693 5.5055 16.6693 5.89299 16.6693 6.66797V14.3346C16.6693 15.7348 16.6693 16.4348 16.3968 16.9696C16.1571 17.44 15.7747 17.8225 15.3042 18.0622C14.7695 18.3346 14.0694 18.3346 12.6693 18.3346H7.33594C5.93581 18.3346 5.23574 18.3346 4.70096 18.0622C4.23056 17.8225 3.8481 17.44 3.60842 16.9696C3.33594 16.4348 3.33594 15.7348 3.33594 14.3346V6.66797C3.33594 5.89299 3.33594 5.5055 3.42112 5.18759C3.65229 4.32486 4.32616 3.65099 5.18889 3.41982C5.50681 3.33464 5.89429 3.33464 6.66927 3.33464M8.0026 5.0013H12.0026C12.4693 5.0013 12.7027 5.0013 12.8809 4.91047C13.0377 4.83058 13.1652 4.7031 13.2451 4.54629C13.3359 4.36803 13.3359 4.13468 13.3359 3.66797V3.0013C13.3359 2.53459 13.3359 2.30124 13.2451 2.12298C13.1652 1.96617 13.0377 1.83869 12.8809 1.7588C12.7027 1.66797 12.4693 1.66797 12.0026 1.66797H8.0026C7.53589 1.66797 7.30254 1.66797 7.12428 1.7588C6.96748 1.83869 6.83999 1.96617 6.7601 2.12298C6.66927 2.30124 6.66927 2.53459 6.66927 3.0013V3.66797C6.66927 4.13468 6.66927 4.36803 6.7601 4.54629C6.83999 4.7031 6.96748 4.83058 7.12428 4.91047C7.30254 5.0013 7.53589 5.0013 8.0026 5.0013Z" stroke="#4A4A4F" stroke-width="1.66667" stroke-linecap="round" stroke-linejoin="round"/>
</svg>
