<svg width="20" height="20" viewBox="0 0 20 20" fill="none" xmlns="http://www.w3.org/2000/svg">
<path d="M11.6654 1.89258V5.3347C11.6654 5.80141 11.6654 6.03476 11.7562 6.21302C11.8361 6.36982 11.9636 6.49731 12.1204 6.5772C12.2986 6.66803 12.532 6.66803 12.9987 6.66803H16.4408M9.9987 15.0013V10.0013M7.4987 12.5013H12.4987M11.6654 1.66797H7.33203C5.9319 1.66797 5.23183 1.66797 4.69705 1.94045C4.22665 2.18014 3.8442 2.56259 3.60451 3.03299C3.33203 3.56777 3.33203 4.26784 3.33203 5.66797V14.3346C3.33203 15.7348 3.33203 16.4348 3.60451 16.9696C3.8442 17.44 4.22665 17.8225 4.69705 18.0622C5.23183 18.3346 5.9319 18.3346 7.33203 18.3346H12.6654C14.0655 18.3346 14.7656 18.3346 15.3003 18.0622C15.7707 17.8225 16.1532 17.44 16.3929 16.9696C16.6654 16.4348 16.6654 15.7348 16.6654 14.3346V6.66797L11.6654 1.66797Z" stroke="#303036" stroke-width="1.66667" stroke-linecap="round" stroke-linejoin="round"/>
</svg>
