<svg width="18" height="18" viewBox="0 0 18 18" fill="none" xmlns="http://www.w3.org/2000/svg">
<path d="M1.82516 3.72239C1.19487 3.01796 0.879732 2.66574 0.867845 2.3664C0.857519 2.10636 0.969265 1.85643 1.16994 1.69074C1.40095 1.5 1.87357 1.5 2.81881 1.5H15.1879C16.1332 1.5 16.6058 1.5 16.8368 1.69074C17.0375 1.85643 17.1492 2.10636 17.1389 2.3664C17.127 2.66574 16.8119 3.01796 16.1816 3.72239L11.4264 9.03703C11.3007 9.17745 11.2379 9.24766 11.1931 9.32756C11.1534 9.39843 11.1242 9.47473 11.1066 9.55403C11.0867 9.64345 11.0867 9.73766 11.0867 9.92609V14.382C11.0867 14.5449 11.0867 14.6264 11.0604 14.6969C11.0372 14.7591 10.9994 14.8149 10.9502 14.8596C10.8946 14.9102 10.8189 14.9404 10.6676 15.001L7.8343 16.1343C7.52801 16.2568 7.37487 16.3181 7.25193 16.2925C7.14442 16.2702 7.05008 16.2063 6.98941 16.1148C6.92004 16.0101 6.92004 15.8452 6.92004 15.5153V9.92609C6.92004 9.73766 6.92004 9.64345 6.90014 9.55403C6.88249 9.47473 6.85334 9.39843 6.81361 9.32756C6.76882 9.24766 6.706 9.17745 6.58036 9.03703L1.82516 3.72239Z" stroke="#4A4A4F" stroke-width="1.66667" stroke-linecap="round" stroke-linejoin="round"/>
</svg>
