<svg width="20" height="18" viewBox="0 0 20 18" fill="none" xmlns="http://www.w3.org/2000/svg">
<path d="M9.9974 16.5L9.91402 16.3749C9.33515 15.5066 9.04571 15.0725 8.66331 14.7582C8.32478 14.4799 7.9347 14.2712 7.5154 14.1438C7.04177 14 6.51999 14 5.47642 14H4.33073C3.39731 14 2.9306 14 2.57408 13.8183C2.26047 13.6586 2.00551 13.4036 1.84572 13.09C1.66406 12.7335 1.66406 12.2668 1.66406 11.3333V4.16667C1.66406 3.23325 1.66406 2.76654 1.84572 2.41002C2.00551 2.09641 2.26047 1.84144 2.57408 1.68166C2.9306 1.5 3.39731 1.5 4.33073 1.5H4.66406C6.5309 1.5 7.46433 1.5 8.17736 1.86331C8.80457 2.18289 9.31451 2.69282 9.63408 3.32003C9.9974 4.03307 9.9974 4.96649 9.9974 6.83333M9.9974 16.5V6.83333M9.9974 16.5L10.0808 16.3749C10.6596 15.5066 10.9491 15.0725 11.3315 14.7582C11.67 14.4799 12.0601 14.2712 12.4794 14.1438C12.953 14 13.4748 14 14.5184 14H15.6641C16.5975 14 17.0642 14 17.4207 13.8183C17.7343 13.6586 17.9893 13.4036 18.1491 13.09C18.3307 12.7335 18.3307 12.2668 18.3307 11.3333V4.16667C18.3307 3.23325 18.3307 2.76654 18.1491 2.41002C17.9893 2.09641 17.7343 1.84144 17.4207 1.68166C17.0642 1.5 16.5975 1.5 15.6641 1.5H15.3307C13.4639 1.5 12.5305 1.5 11.8174 1.86331C11.1902 2.18289 10.6803 2.69282 10.3607 3.32003C9.9974 4.03307 9.9974 4.96649 9.9974 6.83333" stroke="#4A4A4F" stroke-width="1.66667" stroke-linecap="round" stroke-linejoin="round"/>
</svg>
