<svg width="18" height="20" viewBox="0 0 18 20" fill="none" xmlns="http://www.w3.org/2000/svg">
<path d="M6.15833 11.2596L11.85 14.5763M11.8417 5.4263L6.15833 8.74297M16.5 4.16797C16.5 5.54868 15.3807 6.66797 14 6.66797C12.6193 6.66797 11.5 5.54868 11.5 4.16797C11.5 2.78726 12.6193 1.66797 14 1.66797C15.3807 1.66797 16.5 2.78726 16.5 4.16797ZM6.5 10.0013C6.5 11.382 5.38071 12.5013 4 12.5013C2.61929 12.5013 1.5 11.382 1.5 10.0013C1.5 8.62059 2.61929 7.5013 4 7.5013C5.38071 7.5013 6.5 8.62059 6.5 10.0013ZM16.5 15.8346C16.5 17.2153 15.3807 18.3346 14 18.3346C12.6193 18.3346 11.5 17.2153 11.5 15.8346C11.5 14.4539 12.6193 13.3346 14 13.3346C15.3807 13.3346 16.5 14.4539 16.5 15.8346Z" stroke="#303036" stroke-width="1.66667" stroke-linecap="round" stroke-linejoin="round"/>
</svg>
