<svg width="145" height="38" viewBox="0 0 145 38" fill="none" xmlns="http://www.w3.org/2000/svg">
<g filter="url(#filter0_dd_16951_317504)">
<path d="M3.1 14.8C3.1 12.5581 3.10008 10.8828 3.20866 9.55376C3.31715 8.22593 3.53345 7.25268 3.96105 6.41348C4.71845 4.92699 5.92699 3.71845 7.41348 2.96105C8.25268 2.53345 9.22593 2.31715 10.5538 2.20866C11.8828 2.10008 13.5581 2.1 15.8 2.1H22.2C24.4419 2.1 26.1172 2.10008 27.4462 2.20866C28.7741 2.31715 29.7473 2.53345 30.5865 2.96105C32.073 3.71845 33.2816 4.92699 34.039 6.41348C34.4665 7.25268 34.6828 8.22593 34.7913 9.55376C34.8999 10.8828 34.9 12.5581 34.9 14.8V21.2C34.9 23.4419 34.8999 25.1172 34.7913 26.4462C34.6828 27.7741 34.4665 28.7473 34.039 29.5865C33.2816 31.073 32.073 32.2816 30.5865 33.039C29.7473 33.4665 28.7741 33.6828 27.4462 33.7913C26.1172 33.8999 24.4419 33.9 22.2 33.9H15.8C13.5581 33.9 11.8828 33.8999 10.5538 33.7913C9.22593 33.6828 8.25268 33.4665 7.41348 33.039C5.92699 32.2816 4.71845 31.073 3.96105 29.5865C3.53345 28.7473 3.31715 27.7741 3.20866 26.4462C3.10008 25.1172 3.1 23.4419 3.1 21.2V14.8Z" fill="url(#paint0_linear_16951_317504)"/>
<path d="M3.1 14.8C3.1 12.5581 3.10008 10.8828 3.20866 9.55376C3.31715 8.22593 3.53345 7.25268 3.96105 6.41348C4.71845 4.92699 5.92699 3.71845 7.41348 2.96105C8.25268 2.53345 9.22593 2.31715 10.5538 2.20866C11.8828 2.10008 13.5581 2.1 15.8 2.1H22.2C24.4419 2.1 26.1172 2.10008 27.4462 2.20866C28.7741 2.31715 29.7473 2.53345 30.5865 2.96105C32.073 3.71845 33.2816 4.92699 34.039 6.41348C34.4665 7.25268 34.6828 8.22593 34.7913 9.55376C34.8999 10.8828 34.9 12.5581 34.9 14.8V21.2C34.9 23.4419 34.8999 25.1172 34.7913 26.4462C34.6828 27.7741 34.4665 28.7473 34.039 29.5865C33.2816 31.073 32.073 32.2816 30.5865 33.039C29.7473 33.4665 28.7741 33.6828 27.4462 33.7913C26.1172 33.8999 24.4419 33.9 22.2 33.9H15.8C13.5581 33.9 11.8828 33.8999 10.5538 33.7913C9.22593 33.6828 8.25268 33.4665 7.41348 33.039C5.92699 32.2816 4.71845 31.073 3.96105 29.5865C3.53345 28.7473 3.31715 27.7741 3.20866 26.4462C3.10008 25.1172 3.1 23.4419 3.1 21.2V14.8Z" stroke="#D0D5DD" stroke-width="0.2"/>
<path d="M13.7297 20.7739V17.3085C13.7297 17.2314 13.788 17.169 13.8601 17.169H15.5669C15.7352 17.169 15.8753 17.0321 15.8909 16.8534L16.0087 15.5125C16.0268 15.3081 15.8765 15.1313 15.6847 15.1313H13.8601C13.788 15.1313 13.7297 15.069 13.7297 14.9918V12.7394C13.7297 12.4714 13.4586 12.3036 13.2409 12.4379L11.5144 13.5037C11.4134 13.5661 11.3514 13.6811 11.3514 13.8052V14.9925C11.3514 15.0696 11.2931 15.132 11.221 15.132H10.3258C10.1461 15.132 10 15.2882 10 15.4804V16.8213C10 17.0135 10.1461 17.1697 10.3258 17.1697H11.2216C11.2937 17.1697 11.352 17.232 11.352 17.3092V20.5483C11.352 24.5241 13.7495 25.5738 16.2757 24.7208C16.4091 24.6758 16.4999 24.544 16.5023 24.3942L16.5233 23.0829C16.5269 22.8508 16.3219 22.6805 16.1127 22.7409C14.938 23.0829 13.7297 22.998 13.7297 20.7739Z" fill="white"/>
<path d="M22.7969 14.8652C21.5801 14.8652 20.7409 15.3087 20.1578 15.9837C20.0766 16.0775 19.9305 16.0184 19.9305 15.8905V10.3488C19.9305 10.0807 19.6588 9.91297 19.4418 10.0473L17.7645 11.0829C17.6635 11.1452 17.6016 11.2603 17.6016 11.3844V24.3737C17.6016 24.5659 17.7476 24.7221 17.9274 24.7221H19.1604C19.2999 24.7221 19.4237 24.6276 19.4688 24.4861L19.7508 23.6042C19.7844 23.4994 19.9143 23.4756 19.9768 23.5637C20.6014 24.4476 21.5495 25.0004 22.8462 25.0004C25.4192 25.0004 26.9991 22.8585 26.9991 19.9158C26.9991 16.973 25.4517 14.8658 22.7975 14.8658L22.7969 14.8652ZM22.2757 22.7364C20.8425 22.7364 19.9305 21.5871 19.9305 19.9325C19.9305 18.2779 20.8587 17.1285 22.2757 17.1285C23.6927 17.1285 24.6209 18.2779 24.6209 19.9325C24.6209 21.5871 23.6927 22.7364 22.2757 22.7364Z" fill="white"/>
</g>
<path d="M48.5865 12.9102V9.80314C48.5865 9.73339 48.6428 9.67728 48.7128 9.67728H50.3539C50.5167 9.67728 50.6522 9.55445 50.6675 9.39372L50.7801 8.1973C50.7968 8.01381 50.6522 7.85459 50.4665 7.85459H48.7128C48.6428 7.85459 48.5865 7.79849 48.5865 7.72873V5.71195C48.5865 5.47085 48.3247 5.32073 48.1146 5.44052L46.4553 6.39281C46.3579 6.44891 46.2985 6.55203 46.2985 6.66424V7.72873C46.2985 7.79849 46.2422 7.85459 46.1722 7.85459H45.3151C45.1416 7.85459 45 7.9941 45 8.16848V9.36491C45 9.53777 45.14 9.6788 45.3151 9.6788H46.1737C46.2437 9.6788 46.3 9.7349 46.3 9.80465V12.7085C46.3 16.269 48.6063 17.2122 51.0374 16.4464C51.1668 16.4054 51.2535 16.2872 51.2566 16.1522L51.2764 14.9785C51.2794 14.7708 51.0815 14.6161 50.8806 14.6707C49.7495 14.9785 48.5895 14.9027 48.5895 12.9087L48.5865 12.9102Z" fill="#5423E6"/>
<path d="M52.3283 9.33997V16.1227C52.3283 16.2956 52.4683 16.4366 52.6434 16.4366H54.2859C54.4595 16.4366 54.601 16.2971 54.601 16.1227V8.39527C54.601 8.15416 54.3392 8.00404 54.1291 8.12384L52.4866 9.06702C52.3892 9.12313 52.3298 9.22624 52.3298 9.33845L52.3283 9.33997ZM53.4411 3C52.6571 3 52.1562 3.52922 52.1562 4.35716C52.1562 5.1851 52.6738 5.74464 53.4411 5.74464C54.2083 5.74464 54.7259 5.08957 54.7259 4.35716C54.7259 3.5459 54.1915 3 53.4411 3Z" fill="#5423E6"/>
<path d="M61.7431 7.62477C61.6578 7.6187 61.5695 7.61719 61.4812 7.61719C60.3075 7.61719 59.4292 8.21767 58.8203 8.87578C58.7548 8.94705 58.6376 8.92127 58.6087 8.83029L58.3575 8.06907C58.3149 7.94018 58.1946 7.85374 58.0591 7.85374H56.7682C56.5947 7.85374 56.4531 7.99325 56.4531 8.16763V16.1241C56.4531 16.2969 56.5932 16.438 56.7682 16.438H58.4899C58.6635 16.438 58.805 16.2984 58.805 16.1241V11.2049C58.805 11.1761 58.8142 11.1488 58.8324 11.1276C59.5144 10.2602 60.271 9.75831 60.9362 9.75831C61.9212 9.75831 62.2515 10.4301 62.2515 11.5385L62.2363 16.1241C62.2363 16.2969 62.3763 16.438 62.5514 16.438H64.2883C64.4618 16.438 64.6034 16.2984 64.6034 16.1241V11.161C64.6034 8.61648 63.3095 7.71424 61.7461 7.62629L61.7431 7.62477Z" fill="#5423E6"/>
<path d="M71.3646 11.8733L74.2828 8.3659C74.4533 8.16119 74.3072 7.85337 74.0408 7.85337H71.9172C71.8198 7.85337 71.7285 7.89734 71.6691 7.97316L69.4374 10.8149C69.4131 10.8452 69.3765 10.8634 69.3385 10.8634H68.8042C68.7341 10.8634 68.6778 10.8073 68.6778 10.7375V4.1807C68.6778 3.9396 68.416 3.78948 68.2059 3.90927L66.5162 4.87975C66.4187 4.93586 66.3594 5.03897 66.3594 5.15118V16.1222C66.3594 16.295 66.4994 16.4361 66.6745 16.4361H68.3642C68.5378 16.4361 68.6793 16.2966 68.6793 16.1222V13.1273C68.6793 13.0576 68.7357 13.0015 68.8057 13.0015H69.2943C69.3324 13.0015 69.3689 13.0181 69.3933 13.0485L72.0192 16.3329C72.0786 16.4073 72.1699 16.4512 72.2658 16.4512H74.499C74.7685 16.4512 74.9131 16.1373 74.738 15.9341L71.3707 12.0355C71.3311 11.9885 71.3296 11.9203 71.3707 11.8733H71.3646Z" fill="#5423E6"/>
<path d="M79.5213 14.8574C78.2624 14.8574 77.5895 14.0719 77.3855 12.9771C77.3703 12.8998 77.4312 12.8285 77.5088 12.8285H83.0773C83.5782 9.61531 82.199 7.60156 79.2534 7.60156C76.3078 7.60156 74.9453 9.64412 74.9453 12.1264C74.9453 14.8741 76.7477 16.6831 79.5198 16.6831C80.9294 16.6831 81.9295 16.3268 82.8581 15.7263C82.9982 15.6353 83.0408 15.4488 82.9556 15.3048L82.3329 14.26C82.2446 14.1114 82.0513 14.0613 81.9021 14.1508C81.211 14.5648 80.421 14.8574 79.5198 14.8574H79.5213ZM79.3021 9.3181C80.6523 9.3181 81.1136 10.3477 81.1227 11.3258C81.1227 11.3955 81.0679 11.4532 80.9964 11.4532H77.4906C77.419 11.4532 77.3612 11.3925 77.3642 11.3212C77.4129 10.422 77.9579 9.31658 79.3006 9.31658L79.3021 9.3181Z" fill="#5423E6"/>
<path d="M88.8086 7.60156C87.912 7.60156 87.3046 8.11258 86.8951 8.77827C86.8388 8.86925 86.7033 8.85409 86.6683 8.75249L86.4369 8.06406C86.3943 7.93668 86.274 7.85025 86.1385 7.85025H84.9557C84.7822 7.85025 84.6406 7.98975 84.6406 8.16414V16.1206C84.6406 16.2934 84.7807 16.4345 84.9557 16.4345H86.5678C86.7414 16.4345 86.8829 16.295 86.8829 16.1206V12.1264C86.9621 11.0953 87.4645 9.88068 88.4661 9.88068C88.7675 9.88068 89.0141 9.95195 89.244 10.0535C89.3993 10.1233 89.5804 10.0566 89.655 9.90494L90.4025 8.3734C90.4786 8.21721 90.4131 8.02918 90.2578 7.95488C89.9108 7.78959 89.3932 7.60308 88.8117 7.60308L88.8086 7.60156Z" fill="#5423E6"/>
<path d="M50.7804 23.9217C49.6098 23.9217 48.803 24.3175 48.2413 24.9225C48.1636 25.0074 48.022 24.9544 48.022 24.8391V19.876C48.022 19.6349 47.7602 19.4848 47.5501 19.6046L45.938 20.5311C45.8406 20.5872 45.7812 20.6903 45.7812 20.8025V32.4392C45.7812 32.6121 45.9213 32.7531 46.0964 32.7531H47.2807C47.4147 32.7531 47.5349 32.6682 47.5775 32.5408L47.8485 31.7508C47.8805 31.6567 48.0068 31.6355 48.0662 31.7144C48.666 32.5059 49.5778 33.0018 50.8261 33.0018C53.3013 33.0018 54.8206 31.082 54.8206 28.4451C54.8206 25.8081 53.3348 23.9202 50.7789 23.9202L50.7804 23.9217ZM50.2796 30.9744C48.9004 30.9744 48.022 29.9432 48.022 28.4633C48.022 26.9833 48.9171 25.9491 50.2796 25.9491C51.642 25.9491 52.5341 26.9802 52.5341 28.4633C52.5341 29.9463 51.642 30.9744 50.2796 30.9744Z" fill="#5423E6"/>
<path d="M61.8984 24.4795V29.1469C61.8984 29.1742 61.8893 29.2015 61.8725 29.2242C61.2088 30.0779 60.6182 30.5799 59.7687 30.5799C58.7808 30.5799 58.4535 29.9248 58.4535 28.7996L58.4687 24.4795C58.4687 24.3066 58.3287 24.1656 58.1536 24.1656H56.4167C56.2431 24.1656 56.1016 24.3051 56.1016 24.4795V29.4395C56.1016 32.1235 57.5447 32.9818 59.2344 32.9818C60.3944 32.9818 61.2728 32.3813 61.8817 31.7232C61.9471 31.6519 62.0643 31.6777 62.0933 31.7687L62.3444 32.5329C62.3871 32.6618 62.5073 32.7483 62.6428 32.7483H63.9337C64.1072 32.7483 64.2488 32.6088 64.2488 32.4344V24.478C64.2488 24.3051 64.1088 24.1641 63.9337 24.1641H62.212C62.0385 24.1641 61.8969 24.3036 61.8969 24.478L61.8984 24.4795Z" fill="#5423E6"/>
<path d="M71.3134 23.9451C71.2281 23.939 71.1398 23.9375 71.0515 23.9375C69.8779 23.9375 68.9995 24.538 68.3906 25.1961C68.3251 25.2674 68.2079 25.2416 68.179 25.1506L67.9278 24.3894C67.8852 24.2605 67.7649 24.1741 67.6294 24.1741H66.3385C66.165 24.1741 66.0234 24.3136 66.0234 24.4879V32.4444C66.0234 32.6172 66.1635 32.7583 66.3385 32.7583H68.0602C68.2338 32.7583 68.3754 32.6188 68.3754 32.4444V27.5252C68.3754 27.4964 68.3845 27.4691 68.4028 27.4479C69.0847 26.5805 69.8413 26.0786 70.5066 26.0786C71.4915 26.0786 71.8218 26.7504 71.8218 27.8589L71.8066 32.4444C71.8066 32.6172 71.9466 32.7583 72.1217 32.7583H73.8571C74.0306 32.7583 74.1722 32.6188 74.1722 32.4444V27.4813C74.1722 24.9368 72.8783 24.0345 71.3179 23.9466L71.3134 23.9451Z" fill="#5423E6"/>
<path d="M80.9349 28.1858L83.8532 24.6784C84.0237 24.4737 83.8775 24.1659 83.6111 24.1659H81.4875C81.3901 24.1659 81.2988 24.2098 81.2394 24.2857L79.0077 27.1274C78.9834 27.1577 78.9468 27.1759 78.9088 27.1759H78.3745C78.3044 27.1759 78.2481 27.1198 78.2481 27.05V20.4932C78.2481 20.2521 77.9863 20.102 77.7762 20.2218L76.0865 21.1923C75.9891 21.2484 75.9297 21.3515 75.9297 21.4637V32.4347C75.9297 32.6075 76.0697 32.7486 76.2448 32.7486H77.9345C78.1081 32.7486 78.2496 32.6091 78.2496 32.4347V29.4398C78.2496 29.3701 78.306 29.314 78.376 29.314H78.8646C78.9027 29.314 78.9392 29.3306 78.9636 29.361L81.5865 32.6454C81.6459 32.7198 81.7372 32.7637 81.8331 32.7637H84.0678C84.3372 32.7637 84.4819 32.4498 84.3068 32.2466L80.9395 28.348C80.8999 28.301 80.8984 28.2328 80.9395 28.1858H80.9349Z" fill="#5423E6"/>
<path d="M89.0838 31.1777C87.8249 31.1777 87.1535 30.3923 86.945 29.2974C86.9298 29.2201 86.9891 29.1488 87.0683 29.1488H92.6398C93.1407 25.9356 91.7615 23.9219 88.8159 23.9219C85.8703 23.9219 84.5078 25.9644 84.5078 28.4467C84.5078 31.1944 86.3087 33.0035 89.0823 33.0035C90.4919 33.0035 91.492 32.6471 92.4206 32.0466C92.5607 31.9556 92.6033 31.7691 92.5181 31.6251L91.8954 30.5803C91.8071 30.4317 91.6138 30.3816 91.4646 30.4711C90.7735 30.8851 89.9835 31.1777 89.0823 31.1777H89.0838ZM88.8631 25.6384C90.2133 25.6384 90.6746 26.668 90.6822 27.6461C90.6822 27.7158 90.6259 27.7735 90.5558 27.7735H87.05C86.9785 27.7735 86.9206 27.7128 86.9237 27.6415C86.9724 26.7423 87.5204 25.6369 88.8631 25.6369V25.6384Z" fill="#5423E6"/>
<path d="M98.3789 23.9219C97.4823 23.9219 96.8749 24.4329 96.4654 25.0986C96.4091 25.1896 96.2736 25.1744 96.2386 25.0728L96.0072 24.3844C95.9646 24.257 95.8443 24.1706 95.7089 24.1706H94.526C94.3525 24.1706 94.2109 24.3101 94.2109 24.4845V32.4409C94.2109 32.6137 94.351 32.7548 94.526 32.7548H96.1381C96.3117 32.7548 96.4533 32.6153 96.4533 32.4409V28.4467C96.5324 27.4156 97.0348 26.201 98.0364 26.201C98.3378 26.201 98.5844 26.2723 98.8143 26.3739C98.9696 26.4436 99.1507 26.3769 99.2253 26.2253L99.9728 24.6937C100.049 24.5375 99.9834 24.3495 99.8282 24.2752C99.4811 24.1099 98.9635 23.9234 98.382 23.9234L98.3789 23.9219Z" fill="#5423E6"/>
<defs>
<filter id="filter0_dd_16951_317504" x="0" y="0" width="38" height="38" filterUnits="userSpaceOnUse" color-interpolation-filters="sRGB">
<feFlood flood-opacity="0" result="BackgroundImageFix"/>
<feColorMatrix in="SourceAlpha" type="matrix" values="0 0 0 0 0 0 0 0 0 0 0 0 0 0 0 0 0 0 127 0" result="hardAlpha"/>
<feOffset dy="1"/>
<feGaussianBlur stdDeviation="1"/>
<feColorMatrix type="matrix" values="0 0 0 0 0.0627451 0 0 0 0 0.0941176 0 0 0 0 0.156863 0 0 0 0.06 0"/>
<feBlend mode="normal" in2="BackgroundImageFix" result="effect1_dropShadow_16951_317504"/>
<feColorMatrix in="SourceAlpha" type="matrix" values="0 0 0 0 0 0 0 0 0 0 0 0 0 0 0 0 0 0 127 0" result="hardAlpha"/>
<feOffset dy="1"/>
<feGaussianBlur stdDeviation="1.5"/>
<feColorMatrix type="matrix" values="0 0 0 0 0.0627451 0 0 0 0 0.0941176 0 0 0 0 0.156863 0 0 0 0.1 0"/>
<feBlend mode="normal" in2="effect1_dropShadow_16951_317504" result="effect2_dropShadow_16951_317504"/>
<feBlend mode="normal" in="SourceGraphic" in2="effect2_dropShadow_16951_317504" result="shape"/>
</filter>
<linearGradient id="paint0_linear_16951_317504" x1="3" y1="2" x2="35" y2="2" gradientUnits="userSpaceOnUse">
<stop stop-color="#5423E6"/>
<stop offset="1" stop-color="#602CF7"/>
</linearGradient>
</defs>
</svg>
