<svg width="40" height="40" viewBox="0 0 40 40" fill="none" xmlns="http://www.w3.org/2000/svg">
<g clip-path="url(#clip0_16827_155270)">
<path fillRule="evenodd" clipRule="evenodd" d="M5.56462 17.5814C7.33808 16.9495 9.20432 16.1096 10.6435 14.8936C12.3527 13.4494 13.0479 11.5893 13.5147 9.63139C14.114 7.11593 14.3534 4.43634 15.0802 1.9168C15.3492 0.981148 15.8671 0.627469 16.0892 0.470507C16.6508 0.0740266 17.2185 -0.0319525 17.7526 0.00779754C18.3855 0.0536629 19.255 0.293166 19.8268 1.35418C19.9083 1.50605 20.0143 1.73743 20.0856 2.05441C20.1376 2.28679 20.1712 3.01349 20.2263 3.31314C20.3639 4.05107 20.479 4.78902 20.5871 5.53102C20.9469 8.00061 21.1538 10.0982 22.2902 12.367C23.8323 15.4471 25.3775 17.3316 27.473 18.1664C29.4993 18.9736 31.922 18.8218 35.0174 18.1889C35.3119 18.1175 35.6034 18.0563 35.8918 18.0064C37.2566 17.7679 38.5612 18.6638 38.8293 20.0235C39.0973 21.3821 38.23 22.7061 36.8775 23.0047C36.5951 23.0669 36.3169 23.126 36.0417 23.18C31.8588 24.2155 27.0164 27.9113 24.2023 31.1473C23.3349 32.1452 22.065 34.9348 20.7695 36.7144C19.8135 38.0271 18.7392 38.8925 17.8372 39.1982C17.2328 39.4041 16.7232 39.3726 16.3022 39.2686C15.6907 39.1177 15.1832 38.7864 14.7938 38.2595C14.5818 37.9711 14.3851 37.5848 14.2913 37.0915C14.2464 36.854 14.2414 36.2506 14.2424 35.9775C13.9784 35.0694 13.6553 34.1826 13.4199 33.2663C12.8583 31.0801 11.7565 29.6959 10.4478 27.8674C9.22367 26.1561 7.90891 25.0809 5.98154 24.2227C5.73081 24.1615 3.70763 23.6662 2.99315 23.3818C1.94946 22.9649 1.45205 22.2668 1.27164 21.8907C0.964855 21.2526 0.933286 20.6951 0.99444 20.2304C1.08515 19.5444 1.39296 18.9574 1.93927 18.4834C2.27765 18.1889 2.7832 17.9024 3.45997 17.7628C3.98283 17.6537 5.36995 17.5906 5.56462 17.5814ZM17.4336 14.0181C17.5273 14.2271 17.6272 14.437 17.7332 14.649C19.9919 19.1602 22.5175 21.6787 25.5874 22.9007L25.6904 22.9405C23.6366 24.4653 21.7775 26.1694 20.3567 27.8032C19.7717 28.4759 18.9971 29.8733 18.1603 31.3063C17.4 28.8347 16.1565 27.0878 14.593 24.9015C13.3985 23.233 12.1468 21.9773 10.6088 20.954C11.8023 20.3415 12.9408 19.6239 13.9325 18.7861C15.5837 17.3908 16.6753 15.7743 17.4336 14.0181Z" fill="#2CF7A4"/>
</g>
<defs>
<clipPath id="clip0_16827_155270">
<rect width="39" height="40" fill="white" transform="translate(0.5)"/>
</clipPath>
</defs>
</svg>
