<svg width="51" height="52" viewBox="0 0 51 52" fill="none" xmlns="http://www.w3.org/2000/svg">
<g clip-path="url(#clip0_16827_155272)">
<path fillRule="evenodd" clipRule="evenodd" d="M21.2971 10.099C21.1565 9.26459 21.0505 8.43968 20.9821 7.61468C20.879 6.37718 20.9427 5.13022 20.9062 3.89272C20.8902 3.36772 20.8274 1.99899 20.8527 1.80211C21.0824 0.0864851 22.4671 -0.176047 22.8721 -0.222922C23.068 -0.251047 25.0799 -0.475946 25.514 1.7553C26.0465 4.48343 26.2171 7.23027 26.0287 9.92089C26.4683 12.2084 27.2202 14.4865 28.213 16.549C32.1637 24.7521 39.6918 25.549 47.848 25.474C49.1024 25.4552 50.144 26.4396 50.2096 27.6865C50.2752 28.9427 49.3415 30.0302 48.0927 30.1427C43.5337 30.5833 35.4449 34.2396 32.6483 38.0459C32.0633 38.8428 31.723 40.7647 31.273 42.649C30.6449 45.2647 29.8977 47.8521 29.0605 48.9396C28.9349 49.1084 27.4077 50.8334 26.9521 51.0865C25.8571 51.6865 24.9805 51.3396 24.4827 51.0209C23.9849 50.7021 23.4215 50.074 23.1965 49.0334C22.9612 47.9459 23.1599 45.7146 23.1233 45.2364C22.9902 43.5021 22.6434 40.099 21.9356 37.174C21.554 35.599 21.1471 34.1458 20.474 33.424C17.9821 30.7521 13.9977 31.1459 10.6424 31.5865C10.2571 31.6334 9.87179 31.6897 9.48742 31.7365C8.12148 32.1397 6.67113 32.4396 5.13832 32.6177C2.82363 32.8896 2.44303 30.7615 2.42241 30.6209C2.37928 30.3115 2.21895 28.7178 3.96364 28.0803C4.15395 28.0146 5.55834 27.7052 6.09928 27.5834C6.85303 27.4146 7.6152 27.2834 8.3802 27.1615C16.2824 24.7053 20.5743 17.8052 21.2971 10.099ZM24.0093 18.6209C26.9924 24.7897 31.5196 27.7709 36.8858 29.1209C33.5352 30.874 30.4864 33.0678 28.8711 35.2709C28.258 36.1053 27.6955 37.7834 27.1883 39.6677C26.9137 37.9146 26.5424 36.0489 26.0521 34.4552C25.4943 32.6364 24.7433 31.1272 23.9052 30.2272C22.2871 28.4928 20.2564 27.5272 18.073 27.049C20.6868 24.7334 22.6687 21.8459 24.0093 18.6209Z" fill="#F7E62D"/>
</g>
<defs>
<clipPath id="clip0_16827_155272">
<rect width="50" height="52" fill="white" transform="translate(0.5)"/>
</clipPath>
</defs>
</svg>
