<svg width="25" height="24" viewBox="0 0 25 24" fill="none" xmlns="http://www.w3.org/2000/svg">
<path d="M8 11H5.1C4.53995 11 4.25992 11 4.04601 11.109C3.85785 11.2049 3.70487 11.3578 3.60899 11.546C3.5 11.7599 3.5 12.0399 3.5 12.6V21M17 11H19.9C20.4601 11 20.7401 11 20.954 11.109C21.1422 11.2049 21.2951 11.3578 21.391 11.546C21.5 11.7599 21.5 12.0399 21.5 12.6V21M17 21V6.2C17 5.0799 17 4.51984 16.782 4.09202C16.5903 3.71569 16.2843 3.40973 15.908 3.21799C15.4802 3 14.9201 3 13.8 3H11.2C10.0799 3 9.51984 3 9.09202 3.21799C8.71569 3.40973 8.40973 3.71569 8.21799 4.09202C8 4.51984 8 5.0799 8 6.2V21M22.5 21H2.5M11.5 7H13.5M11.5 11H13.5M11.5 15H13.5" stroke="#303036" stroke-width="2" strokeLinecap="round" strokeLinejoin="round"/>
</svg>
