<svg width="33" height="32" viewBox="0 0 33 32" fill="none" xmlns="http://www.w3.org/2000/svg">
<path d="M27.1693 28C27.1693 26.1392 27.1693 25.2089 26.9396 24.4518C26.4226 22.7473 25.0887 21.4134 23.3841 20.8963C22.6271 20.6667 21.6967 20.6667 19.8359 20.6667H13.1693C11.3085 20.6667 10.3781 20.6667 9.62108 20.8963C7.91654 21.4134 6.58266 22.7473 6.06559 24.4518C5.83594 25.2089 5.83594 26.1392 5.83594 28M22.5026 10C22.5026 13.3137 19.8163 16 16.5026 16C13.1889 16 10.5026 13.3137 10.5026 10C10.5026 6.68629 13.1889 4 16.5026 4C19.8163 4 22.5026 6.68629 22.5026 10Z" stroke="#7D7D81" stroke-width="2.66667" strokeLinecap="round" strokeLinejoin="round"/>
</svg>
