<svg width="20" height="20" viewBox="0 0 20 20" fill="none" xmlns="http://www.w3.org/2000/svg">
<path d="M9.9974 12.4974C11.3781 12.4974 12.4974 11.3781 12.4974 9.9974C12.4974 8.61668 11.3781 7.4974 9.9974 7.4974C8.61668 7.4974 7.4974 8.61668 7.4974 9.9974C7.4974 11.3781 8.61668 12.4974 9.9974 12.4974Z" stroke="#7D7D81" strokeWidth="1.66667" strokeLinecap="round" strokeLinejoin="round"/>
<path d="M15.6035 12.2701C15.5026 12.4986 15.4725 12.7521 15.5171 12.9978C15.5616 13.2436 15.6788 13.4704 15.8535 13.6489L15.8989 13.6944C16.0398 13.8351 16.1515 14.0022 16.2278 14.1861C16.304 14.3701 16.3433 14.5672 16.3433 14.7663C16.3433 14.9655 16.304 15.1626 16.2278 15.3465C16.1515 15.5305 16.0398 15.6976 15.8989 15.8383C15.7582 15.9792 15.5911 16.0909 15.4072 16.1672C15.2232 16.2434 15.0261 16.2827 14.8269 16.2827C14.6278 16.2827 14.4307 16.2434 14.2467 16.1672C14.0628 16.0909 13.8957 15.9792 13.755 15.8383L13.7095 15.7929C13.531 15.6182 13.3042 15.501 13.0584 15.4565C12.8127 15.4119 12.5592 15.442 12.3307 15.5429C12.1067 15.6389 11.9156 15.7983 11.781 16.0016C11.6464 16.2048 11.5741 16.443 11.5732 16.6868V16.8156C11.5732 17.2174 11.4135 17.6028 11.1294 17.887C10.8452 18.1711 10.4598 18.3307 10.058 18.3307C9.65616 18.3307 9.27077 18.1711 8.98663 17.887C8.70248 17.6028 8.54285 17.2174 8.54285 16.8156V16.7474C8.53699 16.4966 8.45582 16.2535 8.3099 16.0494C8.16399 15.8454 7.96007 15.69 7.72467 15.6035C7.49617 15.5026 7.2427 15.4725 6.99695 15.5171C6.7512 15.5616 6.52443 15.6788 6.34588 15.8535L6.30043 15.8989C6.15971 16.0398 5.99261 16.1515 5.80867 16.2278C5.62473 16.304 5.42757 16.3433 5.22846 16.3433C5.02934 16.3433 4.83218 16.304 4.64824 16.2278C4.46431 16.1515 4.2972 16.0398 4.15649 15.8989C4.01561 15.7582 3.90386 15.5911 3.82761 15.4072C3.75136 15.2232 3.71211 15.0261 3.71211 14.8269C3.71211 14.6278 3.75136 14.4307 3.82761 14.2467C3.90386 14.0628 4.01561 13.8957 4.15649 13.755L4.20194 13.7095C4.37659 13.531 4.49375 13.3042 4.53831 13.0584C4.58287 12.8127 4.55279 12.5592 4.45194 12.3307C4.35591 12.1067 4.19645 11.9156 3.9932 11.781C3.78995 11.6464 3.55178 11.5741 3.308 11.5732H3.17921C2.77737 11.5732 2.39199 11.4135 2.10784 11.1294C1.82369 10.8452 1.66406 10.4598 1.66406 10.058C1.66406 9.65616 1.82369 9.27077 2.10784 8.98663C2.39199 8.70248 2.77737 8.54285 3.17921 8.54285H3.2474C3.49815 8.53699 3.74134 8.45582 3.94535 8.3099C4.14936 8.16399 4.30476 7.96007 4.39134 7.72467C4.49218 7.49617 4.52226 7.2427 4.4777 6.99695C4.43314 6.7512 4.31598 6.52443 4.14134 6.34588L4.09588 6.30043C3.95501 6.15971 3.84325 5.99261 3.767 5.80867C3.69075 5.62473 3.65151 5.42757 3.65151 5.22846C3.65151 5.02934 3.69075 4.83218 3.767 4.64824C3.84325 4.46431 3.95501 4.2972 4.09588 4.15649C4.2366 4.01561 4.4037 3.90386 4.58764 3.82761C4.77157 3.75136 4.96874 3.71211 5.16785 3.71211C5.36696 3.71211 5.56413 3.75136 5.74806 3.82761C5.932 3.90386 6.0991 4.01561 6.23982 4.15649L6.28527 4.20194C6.46382 4.37659 6.69059 4.49375 6.93634 4.53831C7.1821 4.58287 7.43557 4.55279 7.66406 4.45194H7.72467C7.94874 4.35591 8.13983 4.19645 8.27444 3.9932C8.40904 3.78995 8.48127 3.55178 8.48224 3.308V3.17921C8.48224 2.77737 8.64188 2.39199 8.92602 2.10784C9.21017 1.82369 9.59555 1.66406 9.9974 1.66406C10.3992 1.66406 10.7846 1.82369 11.0688 2.10784C11.3529 2.39199 11.5125 2.77737 11.5125 3.17921V3.2474C11.5135 3.49117 11.5858 3.72935 11.7204 3.9326C11.855 4.13585 12.0461 4.2953 12.2701 4.39134C12.4986 4.49218 12.7521 4.52226 12.9978 4.4777C13.2436 4.43314 13.4704 4.31598 13.6489 4.14134L13.6944 4.09588C13.8351 3.95501 14.0022 3.84325 14.1861 3.767C14.3701 3.69075 14.5672 3.65151 14.7663 3.65151C14.9655 3.65151 15.1626 3.69075 15.3465 3.767C15.5305 3.84325 15.6976 3.95501 15.8383 4.09588C15.9792 4.2366 16.0909 4.4037 16.1672 4.58764C16.2434 4.77157 16.2827 4.96874 16.2827 5.16785C16.2827 5.36696 16.2434 5.56413 16.1672 5.74806C16.0909 5.932 15.9792 6.0991 15.8383 6.23982L15.7929 6.28527C15.6182 6.46382 15.501 6.69059 15.4565 6.93634C15.4119 7.1821 15.442 7.43557 15.5429 7.66406V7.72467C15.6389 7.94874 15.7983 8.13983 16.0016 8.27444C16.2048 8.40904 16.443 8.48127 16.6868 8.48224H16.8156C17.2174 8.48224 17.6028 8.64188 17.887 8.92602C18.1711 9.21017 18.3307 9.59555 18.3307 9.9974C18.3307 10.3992 18.1711 10.7846 17.887 11.0688C17.6028 11.3529 17.2174 11.5125 16.8156 11.5125H16.7474C16.5036 11.5135 16.2654 11.5858 16.0622 11.7204C15.8589 11.855 15.6995 12.0461 15.6035 12.2701Z" stroke="#7D7D81" strokeWidth="1.66667" strokeLinecap="round" strokeLinejoin="round"/>
</svg>
