<svg width="62" height="63" viewBox="0 0 62 63" fill="none" xmlns="http://www.w3.org/2000/svg">
<g clip-path="url(#clip0_16458_383220)">
<path fillRule="evenodd" clipRule="evenodd" d="M37.7495 50.1739C31.287 50.5285 25.5272 52.3907 19.3754 54.073C18.174 54.4017 17.4692 55.6391 17.7954 56.8373C18.1218 58.0362 19.3639 58.7411 20.5655 58.4131C26.3988 56.8178 31.8598 55.0043 37.9981 54.6662C39.2397 54.5981 40.1936 53.5349 40.1216 52.296C40.057 51.0557 38.9909 50.1051 37.7495 50.1739Z" fill="#F7E62D"/>
<path fillRule="evenodd" clipRule="evenodd" d="M45.5697 34.0604C33.3428 26.8256 18.6671 20.9711 4.74409 17.9968C3.52822 17.7379 2.32976 18.5135 2.07261 19.7273C1.81546 20.941 2.58842 22.1387 3.8043 22.3975C17.2662 25.2741 31.4599 30.936 43.2772 37.9335C44.348 38.5651 45.7296 38.2104 46.3605 37.1422C46.9914 36.074 46.6405 34.692 45.5697 34.0604Z" fill="#F7E62D"/>
<path fillRule="evenodd" clipRule="evenodd" d="M54.8098 28.466C53.526 18.8305 48.06 10.1621 41.8648 2.93382C41.0523 1.99211 39.6312 1.88285 38.693 2.6888C37.7478 3.49766 37.6402 4.91913 38.4455 5.86302C44.0908 12.4451 49.1787 20.2847 50.3492 29.0602C50.513 30.2914 51.6472 31.157 52.8754 30.9934C54.1038 30.8305 54.9734 29.6966 54.8098 28.466Z" fill="#F7E62D"/>
</g>
<defs>
<clipPath id="clip0_16458_383220">
<rect width="50" height="49" fill="white" transform="translate(46.875) rotate(73.0416)"/>
</clipPath>
</defs>
</svg>
