<svg width="16" height="12" viewBox="0 0 16 12" fill="none" xmlns="http://www.w3.org/2000/svg">
<path d="M1.33594 2.66406L6.77922 6.47436C7.22 6.7829 7.44039 6.93718 7.68011 6.99693C7.89187 7.04972 8.11334 7.04972 8.3251 6.99693C8.56482 6.93718 8.78521 6.78291 9.22599 6.47436L14.6693 2.66406M4.53594 11.3307H11.4693C12.5894 11.3307 13.1494 11.3307 13.5773 11.1127C13.9536 10.921 14.2595 10.615 14.4513 10.2387C14.6693 9.81089 14.6693 9.25083 14.6693 8.13073V3.86406C14.6693 2.74396 14.6693 2.18391 14.4513 1.75608C14.2595 1.37976 13.9536 1.0738 13.5773 0.882049C13.1494 0.664062 12.5894 0.664062 11.4693 0.664062H4.53594C3.41583 0.664062 2.85578 0.664062 2.42796 0.882049C2.05163 1.0738 1.74567 1.37976 1.55392 1.75608C1.33594 2.18391 1.33594 2.74396 1.33594 3.86406V8.13073C1.33594 9.25083 1.33594 9.81089 1.55392 10.2387C1.74567 10.615 2.05163 10.921 2.42796 11.1127C2.85578 11.3307 3.41583 11.3307 4.53594 11.3307Z" stroke="#BDBDBF" strokeWidth="1.33333" strokeLinecap="round" strokeLinejoin="round"/>
</svg>
