<svg width="165" height="142" viewBox="0 0 165 142" fill="none" xmlns="http://www.w3.org/2000/svg">
<g clip-path="url(#clip0_16634_600014)">
<path fillRule="evenodd" clipRule="evenodd" d="M99.1145 59.0235C99.0767 56.2794 98.7172 53.5116 97.998 50.7249C95.4763 40.9455 84.2255 34.6671 72.2508 33.191C60.2808 31.7148 47.833 35.074 43.0355 43.5807C40.2914 48.4444 39.9129 52.6363 41.0342 56.1705C42.1508 59.6858 44.8001 62.6002 48.3958 64.8712C58.4212 71.1968 75.979 72.4884 83.989 69.8437C87.6935 68.6183 91.3128 67.1423 94.8375 65.4532C92.822 76.5101 85.3135 86.985 75.2928 96.4238C53.515 116.938 19.72 132.509 1.31557 138.233C0.326746 138.541 -0.222121 139.591 0.0854081 140.58C0.392937 141.569 1.44325 142.123 2.43207 141.815C21.2008 135.977 55.6536 120.075 77.862 99.1537C89.3352 88.3476 97.5107 76.1836 98.9064 63.3951C124.843 49.5374 146.143 24.3957 164.353 3.23771C165.03 2.45706 164.94 1.26948 164.155 0.592919C163.369 -0.0789142 162.186 0.00621074 161.51 0.791593C144.042 21.0838 123.769 45.2225 99.1145 59.0235ZM95.3439 61.0342C95.4858 57.9495 95.1829 54.8174 94.3644 51.6569C92.1833 43.1928 82.1579 38.1872 71.7918 36.9098C65.4377 36.1291 58.904 36.7726 53.7801 39.0625C50.5581 40.5008 47.9038 42.5872 46.3046 45.4259C44.204 49.1494 43.7497 52.3335 44.6108 55.0351C45.4719 57.7555 47.6106 59.9413 50.3973 61.6965C59.5333 67.4639 75.52 68.6894 82.8108 66.2812C87.1115 64.8618 91.2845 63.0923 95.3439 61.0342Z" fill="#F7E62D"/>
</g>
<defs>
<clipPath id="clip0_16634_600014">
<rect width="165" height="142" fill="white"/>
</clipPath>
</defs>
</svg>
