<svg width="51" height="56" viewBox="0 0 51 56" fill="none" xmlns="http://www.w3.org/2000/svg">
<g clip-path="url(#clip0_16458_383269)">
<path fillRule="evenodd" clipRule="evenodd" d="M16.8194 51.7943C12.0194 50.4473 6.994 49.7678 2.119 49.1453C1.069 49.0148 0.094151 49.743 0.019151 50.769C-0.130849 51.7957 0.61959 52.7347 1.59459 52.8652C6.31959 53.4645 11.1941 54.1057 15.7691 55.4025C16.7442 55.6837 17.7946 55.1048 18.0946 54.1088C18.3946 53.1135 17.7944 52.0763 16.8194 51.7943Z" fill="#2CF7A4"/>
<path fillRule="evenodd" clipRule="evenodd" d="M31.3688 32.697C23.6438 24.8137 14.9438 17.9452 7.36882 9.8505C6.69382 9.0945 5.49382 9.054 4.74382 9.75974C3.99382 10.4662 3.91912 11.6542 4.66912 12.4102C12.2441 20.5282 20.9441 27.4192 28.6691 35.3257C29.4191 36.0637 30.6188 36.0742 31.3688 35.3482C32.0438 34.623 32.1188 33.435 31.3688 32.697Z" fill="#2CF7A4"/>
<path fillRule="evenodd" clipRule="evenodd" d="M45.8456 2.37526C46.0706 6.88726 46.2951 11.3993 46.5201 15.912C46.5201 16.9455 47.4206 17.7435 48.4706 17.6933C49.5206 17.6423 50.2701 16.7625 50.2701 15.7283C50.0451 11.2088 49.8206 6.69001 49.5956 2.17126C49.5206 1.13776 48.6204 0.345005 47.5704 0.401255C46.5954 0.457505 45.7706 1.34251 45.8456 2.37526Z" fill="#2CF7A4"/>
</g>
<defs>
<clipPath id="clip0_16458_383269">
<rect width="51" height="56" fill="white"/>
</clipPath>
</defs>
</svg>
