<svg width="75" height="39" viewBox="0 0 75 39" fill="none" xmlns="http://www.w3.org/2000/svg">
<path fillRule="evenodd" clipRule="evenodd" d="M71.0089 5.60107C56.9324 31.776 28.8131 42.4176 2.69646 27.6817C1.82703 27.191 0.724491 27.4978 0.233807 28.3565C-0.256877 29.2305 0.0498334 30.3345 0.919265 30.8252C28.9128 46.6345 59.1037 35.3641 74.1922 7.31845C74.6645 6.44442 74.3348 5.34023 73.4562 4.86488C72.5776 4.40487 71.4812 4.72703 71.0089 5.60107Z" fill="#F7E62D"/>
<path d="M24.6731 16.4558C27.5808 16.4558 29.9381 14.0987 29.9381 11.191C29.9381 8.28321 27.5808 5.92606 24.6731 5.92606C21.7654 5.92606 19.4082 8.28321 19.4082 11.191C19.4082 14.0987 21.7654 16.4558 24.6731 16.4558Z" fill="#F7E62D"/>
<path d="M46.4706 10.8552C49.3215 10.8552 51.6327 8.54416 51.6327 5.69325C51.6327 2.84233 49.3215 0.53125 46.4706 0.53125C43.6197 0.53125 41.3086 2.84233 41.3086 5.69325C41.3086 8.54416 43.6197 10.8552 46.4706 10.8552Z" fill="#F7E62D"/>
</svg>
