<svg width="60" height="60" viewBox="0 0 60 60" fill="none" xmlns="http://www.w3.org/2000/svg">
<g filter="url(#filter0_dii_16776_40516)">
<path d="M2 25C2 13.6863 2 8.02944 5.51472 4.51472C9.02944 1 14.6863 1 26 1H34C45.3137 1 50.9706 1 54.4853 4.51472C58 8.02944 58 13.6863 58 25V33C58 44.3137 58 49.9706 54.4853 53.4853C50.9706 57 45.3137 57 34 57H26C14.6863 57 9.02944 57 5.51472 53.4853C2 49.9706 2 44.3137 2 33V25Z" fill="#180A40"/>
<path d="M2.5 25C2.5 19.329 2.50106 15.1261 2.93488 11.8994C3.36677 8.68704 4.2193 6.51725 5.86827 4.86827C7.51725 3.2193 9.68704 2.36677 12.8994 1.93488C16.1261 1.50106 20.329 1.5 26 1.5H34C39.671 1.5 43.8739 1.50106 47.1006 1.93488C50.313 2.36677 52.4828 3.2193 54.1317 4.86827C55.7807 6.51725 56.6332 8.68704 57.0651 11.8994C57.4989 15.1261 57.5 19.329 57.5 25V33C57.5 38.671 57.4989 42.8739 57.0651 46.1006C56.6332 49.313 55.7807 51.4828 54.1317 53.1317C52.4828 54.7807 50.313 55.6332 47.1006 56.0651C43.8739 56.4989 39.671 56.5 34 56.5H26C20.329 56.5 16.1261 56.4989 12.8994 56.0651C9.68704 55.6332 7.51725 54.7807 5.86827 53.1317C4.2193 51.4828 3.36677 49.313 2.93488 46.1006C2.50106 42.8739 2.5 38.671 2.5 33V25Z" stroke="#303036"/>
<path d="M35.8333 25.4999C35.8333 24.9028 35.6055 24.3057 35.1499 23.8501C34.6943 23.3945 34.0972 23.1667 33.5 23.1667M33.5 32.5C37.366 32.5 40.5 29.366 40.5 25.5C40.5 21.634 37.366 18.5 33.5 18.5C29.634 18.5 26.5 21.634 26.5 25.5C26.5 25.8193 26.5214 26.1336 26.5628 26.4415C26.6309 26.948 26.6649 27.2013 26.642 27.3615C26.6181 27.5284 26.5877 27.6184 26.5055 27.7655C26.4265 27.9068 26.2873 28.046 26.009 28.3243L20.0467 34.2866C19.845 34.4884 19.7441 34.5893 19.6719 34.707C19.608 34.8114 19.5608 34.9252 19.5322 35.0442C19.5 35.1785 19.5 35.3212 19.5 35.6065V37.6333C19.5 38.2867 19.5 38.6134 19.6272 38.863C19.739 39.0825 19.9175 39.261 20.137 39.3728C20.3866 39.5 20.7133 39.5 21.3667 39.5H24.1667V37.1667H26.5V34.8333H28.8333L30.6757 32.991C30.954 32.7127 31.0932 32.5735 31.2345 32.4945C31.3816 32.4123 31.4716 32.3819 31.6385 32.358C31.7987 32.3351 32.052 32.3691 32.5585 32.4372C32.8664 32.4786 33.1807 32.5 33.5 32.5Z" stroke="#D6D6D8" strokeWidth="2" strokeLinecap="round" strokeLinejoin="round"/>
</g>
<defs>
<filter id="filter0_dii_16776_40516" x="0" y="0" width="60" height="60" filterUnits="userSpaceOnUse" colorInterpolationFilters="sRGB">
<feFlood floodOpacity="0" result="BackgroundImageFix"/>
<feColorMatrix in="SourceAlpha" type="matrix" values="0 0 0 0 0 0 0 0 0 0 0 0 0 0 0 0 0 0 127 0" result="hardAlpha"/>
<feOffset dy="1"/>
<feGaussianBlur stdDeviation="1"/>
<feComposite in2="hardAlpha" operator="out"/>
<feColorMatrix type="matrix" values="0 0 0 0 0.360784 0 0 0 0 0.14902 0 0 0 0 1 0 0 0 0.05 0"/>
<feBlend mode="normal" in2="BackgroundImageFix" result="effect1_dropShadow_16776_40516"/>
<feBlend mode="normal" in="SourceGraphic" in2="effect1_dropShadow_16776_40516" result="shape"/>
<feColorMatrix in="SourceAlpha" type="matrix" values="0 0 0 0 0 0 0 0 0 0 0 0 0 0 0 0 0 0 127 0" result="hardAlpha"/>
<feOffset dy="-2"/>
<feComposite in2="hardAlpha" operator="arithmetic" k2="-1" k3="1"/>
<feColorMatrix type="matrix" values="0 0 0 0 0.360784 0 0 0 0 0.14902 0 0 0 0 1 0 0 0 0.05 0"/>
<feBlend mode="normal" in2="shape" result="effect2_innerShadow_16776_40516"/>
<feColorMatrix in="SourceAlpha" type="matrix" values="0 0 0 0 0 0 0 0 0 0 0 0 0 0 0 0 0 0 127 0" result="hardAlpha"/>
<feMorphology radius="1" operator="erode" in="SourceAlpha" result="effect3_innerShadow_16776_40516"/>
<feOffset/>
<feComposite in2="hardAlpha" operator="arithmetic" k2="-1" k3="1"/>
<feColorMatrix type="matrix" values="0 0 0 0 0.360784 0 0 0 0 0.14902 0 0 0 0 1 0 0 0 0.2 0"/>
<feBlend mode="normal" in2="effect2_innerShadow_16776_40516" result="effect3_innerShadow_16776_40516"/>
</filter>
</defs>
</svg>
