<svg width="768" height="566" viewBox="0 0 768 566" fill="none" xmlns="http://www.w3.org/2000/svg">
<mask id="mask0_21307_23705" style="mask-type:alpha" maskUnits="userSpaceOnUse" x="0" y="-202" width="768" height="768">
<rect width="768" height="768" transform="translate(0 -202)" fill="url(#paint0_radial_21307_23705)"/>
</mask>
<g mask="url(#mask0_21307_23705)">
<g clip-path="url(#clip0_21307_23705)">
<g clip-path="url(#clip1_21307_23705)">
<line x1="0.5" y1="-202" x2="0.5" y2="566" stroke="#E3E3E4"/>
<line x1="48.5" y1="-202" x2="48.5" y2="566" stroke="#E3E3E4"/>
<line x1="96.5" y1="-202" x2="96.5" y2="566" stroke="#E3E3E4"/>
<line x1="144.5" y1="-202" x2="144.5" y2="566" stroke="#E3E3E4"/>
<line x1="192.5" y1="-202" x2="192.5" y2="566" stroke="#E3E3E4"/>
<line x1="240.5" y1="-202" x2="240.5" y2="566" stroke="#E3E3E4"/>
<line x1="288.5" y1="-202" x2="288.5" y2="566" stroke="#E3E3E4"/>
<line x1="336.5" y1="-202" x2="336.5" y2="566" stroke="#E3E3E4"/>
<line x1="384.5" y1="-202" x2="384.5" y2="566" stroke="#E3E3E4"/>
<line x1="432.5" y1="-202" x2="432.5" y2="566" stroke="#E3E3E4"/>
<line x1="480.5" y1="-202" x2="480.5" y2="566" stroke="#E3E3E4"/>
<line x1="528.5" y1="-202" x2="528.5" y2="566" stroke="#E3E3E4"/>
<line x1="576.5" y1="-202" x2="576.5" y2="566" stroke="#E3E3E4"/>
<line x1="624.5" y1="-202" x2="624.5" y2="566" stroke="#E3E3E4"/>
<line x1="672.5" y1="-202" x2="672.5" y2="566" stroke="#E3E3E4"/>
<line x1="720.5" y1="-202" x2="720.5" y2="566" stroke="#E3E3E4"/>
</g>
<rect x="0.5" y="-201.5" width="767" height="767" stroke="#E3E3E4"/>
<g clip-path="url(#clip2_21307_23705)">
<line y1="37.5" x2="768" y2="37.5" stroke="#E3E3E4"/>
<line y1="85.5" x2="768" y2="85.5" stroke="#E3E3E4"/>
<line y1="133.5" x2="768" y2="133.5" stroke="#E3E3E4"/>
<line y1="181.5" x2="768" y2="181.5" stroke="#E3E3E4"/>
<line y1="229.5" x2="768" y2="229.5" stroke="#E3E3E4"/>
<line y1="277.5" x2="768" y2="277.5" stroke="#E3E3E4"/>
<line y1="325.5" x2="768" y2="325.5" stroke="#E3E3E4"/>
<line y1="373.5" x2="768" y2="373.5" stroke="#E3E3E4"/>
<line y1="421.5" x2="768" y2="421.5" stroke="#E3E3E4"/>
<line y1="469.5" x2="768" y2="469.5" stroke="#E3E3E4"/>
<line y1="517.5" x2="768" y2="517.5" stroke="#E3E3E4"/>
<line y1="565.5" x2="768" y2="565.5" stroke="#E3E3E4"/>
</g>
<rect x="0.5" y="-201.5" width="767" height="767" stroke="#E3E3E4"/>
</g>
</g>
<defs>
<radialGradient id="paint0_radial_21307_23705" cx="0" cy="0" r="1" gradientUnits="userSpaceOnUse" gradientTransform="translate(384 384) rotate(90) scale(384 384)">
<stop/>
<stop offset="1" stop-opacity="0"/>
</radialGradient>
<clipPath id="clip0_21307_23705">
<rect width="768" height="768" fill="white" transform="translate(0 -202)"/>
</clipPath>
<clipPath id="clip1_21307_23705">
<rect y="-202" width="768" height="768" fill="white"/>
</clipPath>
<clipPath id="clip2_21307_23705">
<rect y="-202" width="768" height="768" fill="white"/>
</clipPath>
</defs>
</svg>
