<svg width="19" height="18" viewBox="0 0 19 18" fill="none" xmlns="http://www.w3.org/2000/svg">
<path d="M15.5026 16.5V11.5M13.0026 14H18.0026M9.66927 11.5H6.33594C4.7828 11.5 4.00623 11.5 3.39366 11.7537C2.5769 12.092 1.92799 12.741 1.58967 13.5577C1.33594 14.1703 1.33594 14.9469 1.33594 16.5M12.5859 1.7423C13.8075 2.23679 14.6693 3.43443 14.6693 4.83333C14.6693 6.23224 13.8075 7.42988 12.5859 7.92437M10.9193 4.83333C10.9193 6.67428 9.42689 8.16667 7.58594 8.16667C5.74499 8.16667 4.2526 6.67428 4.2526 4.83333C4.2526 2.99238 5.74499 1.5 7.58594 1.5C9.42689 1.5 10.9193 2.99238 10.9193 4.83333Z" stroke="#303036" stroke-width="1.66667" stroke-linecap="round" stroke-linejoin="round"/>
</svg>
