<svg width="23" height="22" viewBox="0 0 23 22" fill="none" xmlns="http://www.w3.org/2000/svg">
<path d="M6.16667 18.3333H5.49999C4.02821 18.3333 2.83332 17.1383 2.83332 15.6666C2.83332 14.563 3.7295 13.6666 4.83331 13.6666H4.16668C2.69489 13.6667 1.5 12.4717 1.5 11C1.5 9.52834 2.69489 8.33332 4.16668 8.33332H4.83335C3.72954 8.33332 2.83336 7.43697 2.83336 6.33332C2.83336 4.86166 4.02825 3.66664 5.50003 3.66664H6.16671M6.16667 18.3333C6.16667 17.5973 6.7641 17 7.49999 17M6.16667 18.3333C6.16667 19.805 7.36157 21 8.83335 21C10.3051 21 11.5 19.805 11.5 18.3333M6.16671 3.66664C6.16671 4.40261 6.7641 5 7.49999 5M6.16671 3.66664C6.16671 2.19498 7.36157 1 8.8333 1C10.305 1 11.5 2.19502 11.5 3.66668M16.8333 18.3333H17.5C18.9717 18.3333 20.1666 17.1383 20.1666 15.6666C20.1666 14.563 19.2705 13.6666 18.1666 13.6666H18.8333C20.3051 13.6666 21.5 12.4716 21.5 11C21.5 9.5283 20.3051 8.33328 18.8333 8.33328H18.1666C19.2705 8.33328 20.1666 7.43693 20.1666 6.33328C20.1666 4.86162 18.9717 3.6666 17.5 3.6666H16.8333M16.8333 18.3333C16.8333 19.805 15.6384 21 14.1667 21C12.6949 21 11.5 19.805 11.5 18.3333M16.8333 18.3333C16.8333 17.5973 16.2359 17 15.5 17M16.8333 3.6666C16.8333 2.19494 15.6384 1 14.1667 1C12.6949 1 11.5 2.19502 11.5 3.66668M16.8333 3.6666C16.8333 4.40261 16.2359 5 15.5 5M11.5 3.66668V6.33332M11.5 18.3333V15.6667M8.16667 13V10.3333C8.16667 9.97967 8.30712 9.64066 8.5572 9.39066C8.80725 9.14033 9.14637 9 9.49998 9C9.85363 9 10.1928 9.14033 10.4428 9.39066C10.6928 9.64066 10.8333 9.97967 10.8333 10.3333C10.8333 11.4966 10.8333 13 10.8333 13M8.16667 11.6667H10.8333M12.8333 9H14.8333M12.8333 13H14.8333M13.8333 9V13" stroke="#4A1FCC" stroke-width="1.66667" stroke-miterlimit="10" stroke-linecap="round" stroke-linejoin="round"/>
</svg>
