<svg width="19" height="20" viewBox="0 0 19 20" fill="none" xmlns="http://www.w3.org/2000/svg">
<path d="M1 10.0003H17.6667M1 10.0003C1 14.6027 4.73096 18.3337 9.33333 18.3337M1 10.0003C1 5.39795 4.73096 1.66699 9.33333 1.66699M17.6667 10.0003C17.6667 14.6027 13.9357 18.3337 9.33333 18.3337M17.6667 10.0003C17.6667 5.39795 13.9357 1.66699 9.33333 1.66699M9.33333 1.66699C11.4177 3.94895 12.6023 6.91035 12.6667 10.0003C12.6023 13.0903 11.4177 16.0517 9.33333 18.3337M9.33333 1.66699C7.24893 3.94895 6.06437 6.91035 6 10.0003C6.06437 13.0903 7.24893 16.0517 9.33333 18.3337" stroke="#4A1FCC" stroke-width="1.66667" stroke-linecap="round" stroke-linejoin="round"/>
</svg>
