<svg width="12" height="16" viewBox="0 0 12 16" fill="none" xmlns="http://www.w3.org/2000/svg">
<path d="M8.66797 2.66683C9.28795 2.66683 9.59794 2.66683 9.85227 2.73498C10.5425 2.91991 11.0816 3.45901 11.2665 4.14919C11.3346 4.40352 11.3346 4.71352 11.3346 5.3335V11.4668C11.3346 12.5869 11.3346 13.147 11.1166 13.5748C10.9249 13.9511 10.6189 14.2571 10.2426 14.4488C9.81479 14.6668 9.25474 14.6668 8.13463 14.6668H3.86797C2.74786 14.6668 2.18781 14.6668 1.75999 14.4488C1.38366 14.2571 1.0777 13.9511 0.885956 13.5748C0.667969 13.147 0.667969 12.5869 0.667969 11.4668V5.3335C0.667969 4.71352 0.667969 4.40352 0.736117 4.14919C0.921051 3.45901 1.46015 2.91991 2.15033 2.73498C2.40466 2.66683 2.71465 2.66683 3.33464 2.66683M4.4013 4.00016H7.6013C7.97467 4.00016 8.16135 4.00016 8.30396 3.9275C8.4294 3.86359 8.53139 3.7616 8.59531 3.63616C8.66797 3.49355 8.66797 3.30686 8.66797 2.9335V2.40016C8.66797 2.02679 8.66797 1.84011 8.59531 1.6975C8.53139 1.57206 8.4294 1.47007 8.30396 1.40616C8.16135 1.3335 7.97467 1.3335 7.6013 1.3335H4.4013C4.02793 1.3335 3.84125 1.3335 3.69864 1.40616C3.5732 1.47007 3.47121 1.57206 3.4073 1.6975C3.33464 1.84011 3.33464 2.02679 3.33464 2.40016V2.9335C3.33464 3.30686 3.33464 3.49355 3.4073 3.63616C3.47121 3.7616 3.5732 3.86359 3.69864 3.9275C3.84125 4.00016 4.02793 4.00016 4.4013 4.00016Z" stroke="#303036" stroke-width="1.33333" stroke-linecap="round" stroke-linejoin="round"/>
</svg>
